<svg xmlns="http://www.w3.org/2000/svg" xmlns:xlink="http://www.w3.org/1999/xlink" viewBox="0 0 67.8 77.7"><defs><style>.cls-1,.cls-2,.cls-3,.cls-4,.cls-5,.cls-6,.cls-7{stroke-miterlimit:10;stroke-width:0.25px;}.cls-1{fill:url(#未命名的渐变_3);stroke:url(#未命名的渐变_3-2);}.cls-2{fill:url(#未命名的渐变_21);stroke:url(#未命名的渐变_24);}.cls-3{fill:url(#未命名的渐变_32);stroke:url(#未命名的渐变_86);}.cls-4{fill:url(#未命名的渐变_29);stroke:url(#未命名的渐变_87);}.cls-5{fill:url(#未命名的渐变_56);stroke:url(#未命名的渐变_63);}.cls-6{fill:url(#未命名的渐变_65);stroke:url(#未命名的渐变_71);}.cls-7{fill:url(#未命名的渐变_73);stroke:url(#未命名的渐变_80);}</style><linearGradient id="未命名的渐变_3" x1="51.96" y1="4.69" x2="58.85" y2="4.69" gradientUnits="userSpaceOnUse"><stop offset="0" stop-color="#28b8ff"/><stop offset="1" stop-color="#00cdff"/></linearGradient><linearGradient id="未命名的渐变_3-2" x1="51.83" y1="4.75" x2="58.97" y2="4.75" xlink:href="#未命名的渐变_3"/><linearGradient id="未命名的渐变_21" x1="14.64" y1="10.23" x2="51.96" y2="10.23" gradientUnits="userSpaceOnUse"><stop offset="0" stop-color="#46a8ff"/><stop offset="1" stop-color="#28b8ff"/></linearGradient><linearGradient id="未命名的渐变_24" x1="14.52" y1="10.23" x2="52.08" y2="10.23" xlink:href="#未命名的渐变_21"/><linearGradient id="未命名的渐变_32" x1="63.22" y1="44.5" x2="63.22" y2="11.42" gradientUnits="userSpaceOnUse"><stop offset="0.17" stop-color="#fb7c93"/><stop offset="1" stop-color="#ffc600"/></linearGradient><linearGradient id="未命名的渐变_86" x1="63.22" y1="41.46" x2="63.22" y2="8.84" gradientUnits="userSpaceOnUse"><stop offset="0.17" stop-color="#fb7c93"/><stop offset="1" stop-color="#ffc600"/></linearGradient><linearGradient id="未命名的渐变_29" x1="7.38" y1="53.12" x2="7.38" y2="13.35" gradientUnits="userSpaceOnUse"><stop offset="0.26" stop-color="#5381ff"/><stop offset="1" stop-color="#46a8ff"/></linearGradient><linearGradient id="未命名的渐变_87" x1="7.38" y1="51.51" x2="7.38" gradientUnits="userSpaceOnUse"><stop offset="0.25" stop-color="#5381ff"/><stop offset="1" stop-color="#46a8ff"/></linearGradient><linearGradient id="未命名的渐变_56" x1="6.39" y1="49.13" x2="26.25" y2="68.99" gradientUnits="userSpaceOnUse"><stop offset="0" stop-color="#5381ff"/><stop offset="0.9" stop-color="#c858ff"/></linearGradient><linearGradient id="未命名的渐变_63" x1="4.91" y1="47.65" x2="34.19" y2="76.93" gradientUnits="userSpaceOnUse"><stop offset="0" stop-color="#5381ff"/><stop offset="0.89" stop-color="#c858ff"/></linearGradient><linearGradient id="未命名的渐变_65" x1="31.15" y1="74.48" x2="53.72" y2="58.67" gradientUnits="userSpaceOnUse"><stop offset="0.1" stop-color="#c858ff"/><stop offset="1" stop-color="#f846ff"/></linearGradient><linearGradient id="未命名的渐变_71" x1="31.01" y1="74.57" x2="53.83" y2="58.59" gradientUnits="userSpaceOnUse"><stop offset="0.12" stop-color="#c858ff"/><stop offset="1" stop-color="#f846ff"/></linearGradient><linearGradient id="未命名的渐变_73" x1="52.4" y1="58.88" x2="67.35" y2="41.07" gradientUnits="userSpaceOnUse"><stop offset="0" stop-color="#f846ff"/><stop offset="0.82" stop-color="#fb7c93"/></linearGradient><linearGradient id="未命名的渐变_80" x1="52.29" y1="58.97" x2="67.44" y2="40.92" gradientUnits="userSpaceOnUse"><stop offset="0" stop-color="#f846ff"/><stop offset="0.92" stop-color="#fb7c93"/></linearGradient></defs><g id="图层_2" data-name="图层 2"><g id="图层_1-2" data-name="图层 1"><path class="cls-1" d="M52.3,9l6.46,0,0,0V9h0V2.37s0-.74,0-2.22l-5.67,0L52,.16v9.1Z"/><path class="cls-2" d="M14.7,9l7.63,5,5.5,3.63,1.28.84a18.62,18.62,0,0,0,1.59,1,6,6,0,0,0,1.05.46l.37.12h0a7.27,7.27,0,0,0,.79.15,6.26,6.26,0,0,0,.81,0,5.53,5.53,0,0,0,1.07-.16h0a7.43,7.43,0,0,0,1.8-.79L52,9.26V.16L50.23.23a6.52,6.52,0,0,0-1,.31h0a5.88,5.88,0,0,0-1,.56l-.87.57-1,.64-2,1.29L40.44,6.2,33.5,10.78,18.86,1.11,18.73,1a5.39,5.39,0,0,0-.88-.48h0a6.11,6.11,0,0,0-1-.31h0a5.26,5.26,0,0,0-.88-.09H14.64V9Z"/><path class="cls-3" d="M58.83,9.05h0V41.17l8.9.16V9H58.83Z"/><path class="cls-4" d="M9.64,47.89h0a7.14,7.14,0,0,1-.35-1h0A5.38,5.38,0,0,1,9.1,46a6.45,6.45,0,0,1-.07-1V9h5.61V.13H8.13c-1.22,0-2.38,0-3.34,0A5.13,5.13,0,0,0,2.86.73l-.56.33,0,0-.19.15c-.12.09-.29.24-.46.4s-.3.33-.4.45l-.14.19,0,0S1,2.47.74,2.84A4.78,4.78,0,0,0,.15,4.89c0,1.06,0,2.38,0,3.88V45.08A14,14,0,0,0,.29,47.3a15.56,15.56,0,0,0,1.16,4.05L5.82,49.5Z"/><path class="cls-5" d="M11.65,50.48h0a7.43,7.43,0,0,1-.71-.65,7,7,0,0,1-1.21-1.74c0-.07-.06-.13-.08-.19L5.82,49.5,1.45,51.35c.08.2.16.41.26.62A16.23,16.23,0,0,0,4.5,56a14.54,14.54,0,0,0,1.65,1.5l0,0,24.42,19a5.41,5.41,0,0,0,2.3,1h0a2.33,2.33,0,0,0,.38,0V67.31Z"/><path class="cls-6" d="M44.43,59.51,33.8,67.7l-.5-.39V77.55a4.07,4.07,0,0,0,.47,0s.88-.06.85-.07h0l.29-.06a4.83,4.83,0,0,0,.84-.26,15.37,15.37,0,0,0,3-2.06l4.67-3.6,6.45-5L56,61.86,50.2,55.05Z"/><path class="cls-7" d="M58.77,45.07h0a7.86,7.86,0,0,1-.08,1,6.82,6.82,0,0,1-.62,2,7,7,0,0,1-1.21,1.74,5.76,5.76,0,0,1-.7.64h0L50.2,55.05,56,61.86l5.66-4.36,0,0A14.83,14.83,0,0,0,63.29,56a15.62,15.62,0,0,0,4.21-8.66,14.92,14.92,0,0,0,.17-2.22V41.33l-8.9-.16Z"/></g></g></svg>